<?xml version="1.0" encoding="iso-8859-1"?>
<!-- Generator: Adobe Illustrator 19.0.0, SVG Export Plug-In . SVG Version: 6.00 Build 0)  -->
<svg version="1.1" id="Layer_1" xmlns="http://www.w3.org/2000/svg" xmlns:xlink="http://www.w3.org/1999/xlink" x="0px" y="0px"
	 viewBox="0 0 322.037 322.037" style="enable-background:new 0 0 322.037 322.037;" xml:space="preserve">
<g transform="translate(0 -562.36)">
	<g>
		<g>
			<path d="M160.8,611.421c-2.1,0-4.2,0.5-5.8,1.6l-95.1,47.2H14.2c-7.9,0-14.2,6.3-14.2,14.2v98.1c0,7.3,6.3,13.6,14.2,13.6h45.7
				l95.1,47.7c8.9,4.7,20-2.1,20-12.6v-195.7C175,617.721,168.7,611.421,160.8,611.421z M69.5,759.921c-2.1-1-4.2-1.6-6.3-1.6H28
				v-69.8h35.1c2.1,0,4.2-0.5,6.3-1.6l77.8-38.8v150.6L69.5,759.921z"/>
			<path d="M210.2,684.921L210.2,684.921c-7.9,0-14.2,6.3-14.2,14.2v48.8c0,18.9,28.4,18.9,28.4,0v-48.8
				C224.4,691.221,218.1,684.321,210.2,684.921z"/>
			<polygon points="259,660.221 259,660.221 259,660.221 			"/>
			<path d="M259,660.221c-7.9,0-14.2,6.3-13.7,14.2v98.1c-0.5,18.9,28.4,18.9,27.8,0v-98.1C273.2,666.521,266.9,660.221,259,660.221
				z"/>
			<path d="M307.9,635.521c-7.4,0.5-13.7,6.8-13.7,14.2v146.9c-0.5,18.9,28.4,18.9,27.8,0v-146.9
				C322.6,641.821,315.8,635.521,307.9,635.521z"/>
		</g>
	</g>
</g>
<g>
</g>
<g>
</g>
<g>
</g>
<g>
</g>
<g>
</g>
<g>
</g>
<g>
</g>
<g>
</g>
<g>
</g>
<g>
</g>
<g>
</g>
<g>
</g>
<g>
</g>
<g>
</g>
<g>
</g>
</svg>
