<?xml version="1.0" encoding="iso-8859-1"?>
<!-- Generator: Adobe Illustrator 19.0.0, SVG Export Plug-In . SVG Version: 6.00 Build 0)  -->
<svg version="1.1" id="Layer_1" xmlns="http://www.w3.org/2000/svg" xmlns:xlink="http://www.w3.org/1999/xlink" x="0px" y="0px"
	 viewBox="0 0 321.957 321.957" style="enable-background:new 0 0 321.957 321.957;" xml:space="preserve">
<g transform="translate(0 -562.36)">
	<g>
		<g>
			<path d="M160.6,611.381c-2.1,0-4.2,0.5-5.8,1.6l-95,47.2H14.2c-7.9,0-14.2,6.3-14.2,14.2v98.1c0,7.3,6.3,13.6,14.2,13.6h45.6
				l95,47.7c8.9,4.7,19.9-2.1,19.9-12.6v-195.7C174.8,617.681,168.5,611.381,160.6,611.381z M147,798.681l-77.7-38.8
				c-2.1-1-4.2-1.6-6.3-1.6H27.8v-69.8h35.3c2.1,0,4.2-0.5,6.3-1.6l77.6-38.8V798.681z"/>
			<path d="M317.4,762.581L317.4,762.581l-38.9-39.1l39-39c9.4-8.9,2.6-24.1-10-24.1c-3.7,0.5-7.3,1.6-9.4,4.2l-39.2,39.4
				l-39.2-39.4c-2.6-2.6-6.3-4.2-10-4.2c-12.6,0-18.9,15.2-10,24.1l39.4,39.2l-38.8,39c-14.2,13.1,6.3,33.1,19.4,19.4l38.9-38.9
				l39.1,38.9C311.1,795.581,331,775.681,317.4,762.581z"/>
		</g>
	</g>
</g>
<g>
</g>
<g>
</g>
<g>
</g>
<g>
</g>
<g>
</g>
<g>
</g>
<g>
</g>
<g>
</g>
<g>
</g>
<g>
</g>
<g>
</g>
<g>
</g>
<g>
</g>
<g>
</g>
<g>
</g>
</svg>
